<?xml version="1.0" encoding="UTF-8" standalone="no"?>
<!--    Автор:-=SpV=-
        Верстак: TechDraw
        Версия: 2.3 (сгенерирован)
        Шрифт: GOSTRUS https://fontlibrary.org/ru/font/gostrus-type-a -->

<svg
    xmlns="http://www.w3.org/2000/svg" version="1.1"
    xmlns:freecad="http://www.freecadweb.org/wiki/index.php?title=Svg_Namespace"
    width="594mm"
    height="841mm"
    viewBox="0 0 594 841">
    <g id="all">
        <rect
            id="drawing-border"
            style="fill:none;stroke:#000000;stroke-width:0.6;stroke-linecap:miter;stroke-miterlimit:4"
            width="569"
            height="831"
            x="20"
            y="5" />
        <g
            id="thick-righttopblock-structure"
            style="fill:none;stroke:#000000;stroke-width:0.6;stroke-linecap:miter;stroke-miterlimit:4">
            <rect width="14" height="70" x="575" y="5" />
        </g>
        <g
            id="righttopblock-text-editable"
            style="font-style:italic;font-size:8px;text-anchor:middle;fill:#000000;font-family:'GOSTRUS'">
            <text freecad:editable="Обозначение" x="582" y="45" transform="rotate(-90,581,41)"><tspan>Обозначение</tspan></text>
        </g>
        <g
            transform="translate(384,584)">
            <g
                id="thick-titleblock-structure"
                style="fill:none;stroke:#000000;stroke-width:0.6;stroke-linecap:miter;stroke-miterlimit:4">
                <rect width="185" height="15" x="20" y="237" />
                <path d="m 27,237 v 15" />
                <path d="m 37,237 v 15" />
                <path d="m 60,237 v 15" />
                <path d="m 75,237 v 15" />
                <path d="m 85,237 v 15" />
                <path d="m 195,237 v 15" />
            </g>
            <g
                id="thin-titleblock-structure"
                style="fill:none;stroke:#000000;stroke-width:0.3;stroke-linecap:miter;stroke-miterlimit:4">
                <path d="m 20,242 h 65" />
                <path d="m 20,247 h 65" />
                <path d="m 195,245 h 10" />
            </g>
            <g
                id="titleblock-text-non-editable"
                style="font-style:italic;font-size:4px;text-anchor:start;fill:#000000;font-family:'GOSTRUS'">
                <text x="20.6" y="250.5">Изм.</text>
                <text x="28" y="250.5">Лист</text>
                <text x="42.3" y="250.5">№ докум.</text>
                <text x="64" y="250.5">Подп.</text>
                <text x="76" y="250.5">Дата</text>
                <text x="196" y="244">Лист</text>
                <text x="90" y="255.5">Копировал</text>
                <text x="165" y="255.5">Формат A1</text>
            </g>
        </g>
        <g
            id="titleblock-text-editable-middle-12px"
            style="font-style:italic;font-size:12px;text-anchor:middle;fill:#000000;font-family:'GOSTRUS'">
            <text freecad:editable="Обозначение" x="523" y="832"><tspan>Обозначение</tspan></text>
        </g>
        <g
            id="titleblock-text-editable-middle-4px"
            style="font-style:italic;font-size:4px;text-anchor:middle;fill:#000000;font-family:'GOSTRUS'">
            <text freecad:editable="Номер листа" x="584" y="834"><tspan>2</tspan></text>
        </g>
        <g
            id="thick-leftblock-structure"
            style="fill:none;stroke:#000000;stroke-width:0.6;stroke-linecap:miter;stroke-miterlimit:4">
            <rect width="12" height="120" x="8" y="549" />
            <path d="m 13,549 v 120" />
            <path d="m 8,609 h 12" />
            <rect width="12" height="145" x="8" y="691" />
            <path d="m 13,691 v 145" />
            <path d="m 8,726 h 12" />
            <path d="m 8,751 h 12" />
            <path d="m 8,776 h 12" />
            <path d="m 8,811 h 12" />
            
        </g>
        <g
            id="leftblock-text-non-editable"
            style="font-style:italic;font-size:4px;text-anchor:middle;fill:#000000;font-family:'GOSTRUS'"
            transform="matrix(0,-1,1,0,0,0)" >
            <text x="-579" y="11.5">Перв. примен.</text>
            <text x="-640" y="11.5">Справ. №</text>
            <text x="-709" y="11.5">Подп. и дата</text>
            <text x="-739" y="11.5">Инв. № дубл.</text>
            <text x="-764" y="11.5">Взам. инв. №</text>
            <text x="-794" y="11.5">Подп. и дата</text>
            <text x="-824" y="11.5">Инв. № подл</text>
        </g>
        <g
		    id="leftblock-text-editable"
			style="font-style:italic;font-size:4px;text-anchor:middle;fill:#000000;font-family:'GOSTRUS'">
		    <text freecad:editable="Первичная применяемость" x="15" y="579" transform="rotate(-90,16.5,578)"><tspan></tspan></text>
            <text freecad:editable="Справ. №" x="15" y="640" transform="rotate(-90,16.5,639)"><tspan></tspan></text>
            <text freecad:editable="Подп. и дата дубликата" x="15" y="709" transform="rotate(-90,16.5,708)"><tspan></tspan></text>
            <text freecad:editable="Инв. № дубл." x="15" y="739" transform="rotate(-90,16.5,738)"><tspan></tspan></text>
            <text freecad:editable="Взам. инв. №" x="15" y="764" transform="rotate(-90,16.5,763)"><tspan></tspan></text>
            <text freecad:editable="Подп. и дата подлинника" x="15" y="794" transform="rotate(-90,16.5,793)"><tspan></tspan></text>
            <text freecad:editable="Инв. № подл" x="15" y="824" transform="rotate(-90,16.5,823)"><tspan></tspan></text>
	    </g>
    </g>
<!-- DrawingContent -->
</svg>
    