<?xml version="1.0" encoding="UTF-8" standalone="no"?>
<!--    Автор:-=SpV=-
        Верстак: TechDraw
        Версия: 2.3 (сгенерирован)
        Шрифт: GOSTRUS https://fontlibrary.org/ru/font/gostrus-type-a -->

<svg
    xmlns="http://www.w3.org/2000/svg" version="1.1"
    xmlns:freecad="http://www.freecadweb.org/wiki/index.php?title=Svg_Namespace"
    width="297mm"
    height="420mm"
    viewBox="0 0 297 420">
    <g id="all">
        <rect
            id="drawing-border"
            style="fill:none;stroke:#000000;stroke-width:0.6;stroke-linecap:miter;stroke-miterlimit:4"
            width="272"
            height="410"
            x="20"
            y="5" />
        <g
            id="thick-righttopblock-structure"
            style="fill:none;stroke:#000000;stroke-width:0.6;stroke-linecap:miter;stroke-miterlimit:4">
            <rect width="14" height="70" x="278" y="5" />
        </g>
        <g
            id="thin-righttopblock-structure-dop"
            style="fill:none;stroke:#000000;stroke-width:0.3;stroke-linecap:miter;stroke-miterlimit:4">
            <rect width="7" height="70" x="271" y="5" />
            <rect width="14" height="67" x="278" y="75" />
            <path d="m 285,89 v 53" />
            <path d="m 278,89 h 14" />
        </g>
        
        <g
            id="righttopblock-text-editable"
            style="font-style:italic;font-size:8px;text-anchor:middle;fill:#000000;font-family:'GOSTRUS'">
            <text freecad:editable="Обозначение" x="285" y="45" transform="rotate(-90,284,41)"><tspan>Обозначение</tspan></text>
        </g>
        <g
            transform="translate(87,123)">
            <g
                id="thick-titleblock-structure"
                style="fill:none;stroke:#000000;stroke-width:0.6;stroke-linecap:miter;stroke-miterlimit:4">
                <rect width="185" height="55" x="20" y="237" />
                <path d="m 85,252 h 120" />
                <path d="m 20,257 h 65" />
                <path d="m 155,257 h 50" />
                <path d="m 20,262 h 65" />
                <path d="m 155,272 h 50" />
                <path d="m 85,277 h 120" />
                <path d="m 27,237 v 25" />
                <path d="m 37,237 v 55" />
                <path d="m 60,237 v 55" />
                <path d="m 75,237 v 55" />
                <path d="m 85,237 v 55" />
                <path d="m 155,252 v 40" />
                <path d="m 170,252 v 20" />
                <path d="m 175,272 v 5" />
                <path d="m 187,252 v 20" />
            </g>
            <g
                id="thin-titleblock-structure"
                style="fill:none;stroke:#000000;stroke-width:0.3;stroke-linecap:miter;stroke-miterlimit:4">
                <path d="m 85,229 h 120" />
                <path d="m 20,242 h 65" />
                <path d="m 20,247 h 65" />
                <path d="m 20,252 h 65" />
                <path d="m 20,267 h 65" />
                <path d="m 20,272 h 65" />
                <path d="m 20,277 h 65" />
                <path d="m 20,282 h 65" />
                <path d="m 20,287 h 65" />
                <path d="m 85,229 v 8" />
                <path d="m 160,257 v 15" />
                <path d="m 165,257 v 15" />
            </g>
            <g
                id="titleblock-text-non-editable"
                style="font-style:italic;font-size:4px;text-anchor:start;fill:#000000;font-family:'GOSTRUS'">
                <text x="20.6" y="260.5">Изм.</text>
                <text x="28" y="260.5">Лист</text>
                <text x="42.3" y="260.5">№ докум.</text>
                <text x="63.5" y="260.5">Подп.</text>
                <text x="76" y="260.5">Дата</text>
                <text x="20.6" y="265.5">Разраб.</text>
                <text x="20.6" y="270.5">Пров.</text>
                <text x="20.6" y="275.5">Т.Контр.</text>
                <text x="20.6" y="285.5">Н.Контр.</text>
                <text x="20.6" y="290.5">Утв.</text>
                <text x="159" y="255.5">Лит.</text>
                <text x="174" y="255.5">Масса</text>
                <text x="189.5" y="255.5">Масштаб</text>
                <text x="158" y="276">Лист</text>
                <text x="178" y="276">Листов</text>
                <text x="90" y="295.5">Копировал</text>
                <text x="165" y="295.5">Формат A3</text>
            </g>
        </g>
        <g
            id="titleblock-text-editable-fio"
            style="font-style:italic;font-size:4px;letter-spacing:0px;fill:#000000;font-family:'GOSTRUS'">
            <text freecad:editable="Свободная строка" x="107.6" y="404"><tspan></tspan></text>
            <text freecad:editable="Разработал" x="124.5" y="389"><tspan></tspan></text>
            <text freecad:editable="Проверил" x="124.5" y="394"><tspan></tspan></text>
            <text freecad:editable="Т.Контр." x="124.5" y="399"><tspan></tspan></text>
            <text freecad:editable="Свободная строка фамилия" x="124.5" y="404"><tspan></tspan></text>
            <text freecad:editable="Н.Контр." x="124.5" y="409"><tspan></tspan></text>
            <text freecad:editable="Утвердил" x="124.5" y="414"><tspan></tspan></text>
        </g>
        <g
            id="titleblock-text-editable-date"
            style="font-style:italic;font-size:2.3px;text-anchor:middle;fill:#000000;font-family:'GOSTRUS'">
            <text freecad:editable="Дата Разработал" x="167" y="389"><tspan></tspan></text>
            <text freecad:editable="Дата Проверил" x="167" y="394"><tspan></tspan></text>
            <text freecad:editable="Дата Т.Контр." x="167" y="399"><tspan></tspan></text>
            <text freecad:editable="Дата Свободная строка" x="167" y="404"><tspan></tspan></text>
            <text freecad:editable="Дата Н.Контр." x="167" y="409"><tspan></tspan></text>
            <text freecad:editable="Дата Утвердил" x="167" y="414"><tspan></tspan></text>
        </g>
        <g
            id="titleblock-text-editable-middle-4px"
            style="font-style:italic;font-size:4px;text-anchor:middle;fill:#000000;font-family:'GOSTRUS'">
            <text freecad:editable="Масса" x="265.3" y="389"><tspan>г.</tspan></text>
            <text freecad:editable="Масштаб" x="282.7" y="389"><tspan>1:1</tspan></text>
            <text freecad:editable="Номер листа" x="257" y="399"><tspan>1</tspan></text>
            <text freecad:editable="Общее количество листов" x="283" y="399"><tspan>1</tspan></text>
        </g>
        <g
            id="titleblock-text-editable-middle-12px"
            style="font-style:italic;font-size:12px;text-anchor:middle;fill:#000000;font-family:'GOSTRUS'">
            <text freecad:editable="Обозначение" x="231" y="371"><tspan>Обозначение</tspan></text>
            <text freecad:editable="Наименование Середина" x="206.5" y="390.5"><tspan>Наименование</tspan></text>
            <text freecad:editable="Организация" x="266.5" y="411.5"><tspan></tspan></text>
		</g>
        <g
            id="titleblock-text-editable-middle-9px"
            style="font-style:italic;font-size:9px;text-anchor:middle;fill:#000000;font-family:'GOSTRUS'">
            <text freecad:editable="Наименование строка 1" x="206.5" y="384"><tspan></tspan></text>
            <text freecad:editable="Наименование строка 2" x="206.5" y="392"><tspan></tspan></text>
        </g>
        <g
            id="titleblock-text-editable-middle-7px"
            style="font-style:italic;font-size:7px;text-anchor:middle;fill:#000000;font-family:'GOSTRUS'">
            <text freecad:editable="Сборочный чертеж" x="206.5" y="398.5"><tspan>Сборочный чертеж</tspan></text>
            <text freecad:editable="Оборудование / Материал" x="206.5" y="409"><tspan></tspan></text>
            <text freecad:editable="Оборудование / Материал строка 1" x="206.5" y="406"><tspan></tspan></text>
            <text freecad:editable="Оборудование / Материал строка 2" x="206.5" y="413"><tspan></tspan></text>
		</g>
        <g
            id="thick-leftblock-structure"
            style="fill:none;stroke:#000000;stroke-width:0.6;stroke-linecap:miter;stroke-miterlimit:4">
            <rect width="12" height="120" x="8" y="128" />
            <path d="m 13,128 v 120" />
            <path d="m 8,188 h 12" />
            <rect width="12" height="145" x="8" y="270" />
            <path d="m 13,270 v 145" />
            <path d="m 8,305 h 12" />
            <path d="m 8,330 h 12" />
            <path d="m 8,355 h 12" />
            <path d="m 8,390 h 12" />
            
        </g>
        <g
            id="leftblock-text-non-editable"
            style="font-style:italic;font-size:4px;text-anchor:middle;fill:#000000;font-family:'GOSTRUS'"
            transform="matrix(0,-1,1,0,0,0)" >
            <text x="-158" y="11.5">Перв. примен.</text>
            <text x="-219" y="11.5">Справ. №</text>
            <text x="-288" y="11.5">Подп. и дата</text>
            <text x="-318" y="11.5">Инв. № дубл.</text>
            <text x="-343" y="11.5">Взам. инв. №</text>
            <text x="-373" y="11.5">Подп. и дата</text>
            <text x="-403" y="11.5">Инв. № подл</text>
        </g>
        <g
		    id="leftblock-text-editable"
			style="font-style:italic;font-size:4px;text-anchor:middle;fill:#000000;font-family:'GOSTRUS'">
		    <text freecad:editable="Первичная применяемость" x="15" y="158" transform="rotate(-90,16.5,157)"><tspan></tspan></text>
            <text freecad:editable="Справ. №" x="15" y="219" transform="rotate(-90,16.5,218)"><tspan></tspan></text>
            <text freecad:editable="Подп. и дата дубликата" x="15" y="288" transform="rotate(-90,16.5,287)"><tspan></tspan></text>
            <text freecad:editable="Инв. № дубл." x="15" y="318" transform="rotate(-90,16.5,317)"><tspan></tspan></text>
            <text freecad:editable="Взам. инв. №" x="15" y="343" transform="rotate(-90,16.5,342)"><tspan></tspan></text>
            <text freecad:editable="Подп. и дата подлинника" x="15" y="373" transform="rotate(-90,16.5,372)"><tspan></tspan></text>
            <text freecad:editable="Инв. № подл" x="15" y="403" transform="rotate(-90,16.5,402)"><tspan></tspan></text>
	    </g>
    </g>
<!-- DrawingContent -->
</svg>
    