<?xml version="1.0" encoding="UTF-8" standalone="no"?>
<!--    Автор:-=SpV=-
        Верстак: TechDraw
        Версия: 2.3 (сгенерирован)
        Шрифт: GOSTRUS https://fontlibrary.org/ru/font/gostrus-type-a -->

<svg
    xmlns="http://www.w3.org/2000/svg" version="1.1"
    xmlns:freecad="http://www.freecadweb.org/wiki/index.php?title=Svg_Namespace"
    width="594mm"
    height="841mm"
    viewBox="0 0 594 841">
    <g id="all">
        <rect
            id="drawing-border"
            style="fill:none;stroke:#000000;stroke-width:0.6;stroke-linecap:miter;stroke-miterlimit:4"
            width="569"
            height="831"
            x="20"
            y="5" />
        <g
            id="thick-righttopblock-structure"
            style="fill:none;stroke:#000000;stroke-width:0.6;stroke-linecap:miter;stroke-miterlimit:4">
            <rect width="14" height="70" x="575" y="5" />
        </g>
        <g
            id="thin-righttopblock-structure-dop"
            style="fill:none;stroke:#000000;stroke-width:0.3;stroke-linecap:miter;stroke-miterlimit:4">
            <rect width="7" height="70" x="568" y="5" />
            <rect width="14" height="67" x="575" y="75" />
            <path d="m 582,89 v 53" />
            <path d="m 575,89 h 14" />
        </g>
        
        <g
            id="righttopblock-text-editable"
            style="font-style:italic;font-size:8px;text-anchor:middle;fill:#000000;font-family:'GOSTRUS'">
            <text freecad:editable="Обозначение" x="582" y="45" transform="rotate(-90,581,41)"><tspan>Обозначение</tspan></text>
        </g>
        <g
            transform="translate(384,544)">
            <g
                id="thick-titleblock-structure"
                style="fill:none;stroke:#000000;stroke-width:0.6;stroke-linecap:miter;stroke-miterlimit:4">
                <rect width="185" height="55" x="20" y="237" />
                <path d="m 85,252 h 120" />
                <path d="m 20,257 h 65" />
                <path d="m 155,257 h 50" />
                <path d="m 20,262 h 65" />
                <path d="m 155,272 h 50" />
                <path d="m 85,277 h 120" />
                <path d="m 27,237 v 25" />
                <path d="m 37,237 v 55" />
                <path d="m 60,237 v 55" />
                <path d="m 75,237 v 55" />
                <path d="m 85,237 v 55" />
                <path d="m 155,252 v 40" />
                <path d="m 170,252 v 20" />
                <path d="m 175,272 v 5" />
                <path d="m 187,252 v 20" />
            </g>
            <g
                id="thin-titleblock-structure"
                style="fill:none;stroke:#000000;stroke-width:0.3;stroke-linecap:miter;stroke-miterlimit:4">
                <path d="m 85,229 h 120" />
                <path d="m 20,242 h 65" />
                <path d="m 20,247 h 65" />
                <path d="m 20,252 h 65" />
                <path d="m 20,267 h 65" />
                <path d="m 20,272 h 65" />
                <path d="m 20,277 h 65" />
                <path d="m 20,282 h 65" />
                <path d="m 20,287 h 65" />
                <path d="m 85,229 v 8" />
                <path d="m 160,257 v 15" />
                <path d="m 165,257 v 15" />
            </g>
            <g
                id="titleblock-text-non-editable"
                style="font-style:italic;font-size:4px;text-anchor:start;fill:#000000;font-family:'GOSTRUS'">
                <text x="20.6" y="260.5">Изм.</text>
                <text x="28" y="260.5">Лист</text>
                <text x="42.3" y="260.5">№ докум.</text>
                <text x="63.5" y="260.5">Подп.</text>
                <text x="76" y="260.5">Дата</text>
                <text x="20.6" y="265.5">Разраб.</text>
                <text x="20.6" y="270.5">Пров.</text>
                <text x="20.6" y="275.5">Т.Контр.</text>
                <text x="20.6" y="285.5">Н.Контр.</text>
                <text x="20.6" y="290.5">Утв.</text>
                <text x="159" y="255.5">Лит.</text>
                <text x="174" y="255.5">Масса</text>
                <text x="189.5" y="255.5">Масштаб</text>
                <text x="158" y="276">Лист</text>
                <text x="178" y="276">Листов</text>
                <text x="90" y="295.5">Копировал</text>
                <text x="165" y="295.5">Формат A1</text>
            </g>
        </g>
        <g
            id="titleblock-text-editable-fio"
            style="font-style:italic;font-size:4px;letter-spacing:0px;fill:#000000;font-family:'GOSTRUS'">
            <text freecad:editable="Свободная строка" x="404.6" y="825"><tspan></tspan></text>
            <text freecad:editable="Разработал" x="421.5" y="810"><tspan></tspan></text>
            <text freecad:editable="Проверил" x="421.5" y="815"><tspan></tspan></text>
            <text freecad:editable="Т.Контр." x="421.5" y="820"><tspan></tspan></text>
            <text freecad:editable="Свободная строка фамилия" x="421.5" y="825"><tspan></tspan></text>
            <text freecad:editable="Н.Контр." x="421.5" y="830"><tspan></tspan></text>
            <text freecad:editable="Утвердил" x="421.5" y="835"><tspan></tspan></text>
        </g>
        <g
            id="titleblock-text-editable-date"
            style="font-style:italic;font-size:2.3px;text-anchor:middle;fill:#000000;font-family:'GOSTRUS'">
            <text freecad:editable="Дата Разработал" x="464" y="810"><tspan></tspan></text>
            <text freecad:editable="Дата Проверил" x="464" y="815"><tspan></tspan></text>
            <text freecad:editable="Дата Т.Контр." x="464" y="820"><tspan></tspan></text>
            <text freecad:editable="Дата Свободная строка" x="464" y="825"><tspan></tspan></text>
            <text freecad:editable="Дата Н.Контр." x="464" y="830"><tspan></tspan></text>
            <text freecad:editable="Дата Утвердил" x="464" y="835"><tspan></tspan></text>
        </g>
        <g
            id="titleblock-text-editable-middle-4px"
            style="font-style:italic;font-size:4px;text-anchor:middle;fill:#000000;font-family:'GOSTRUS'">
            <text freecad:editable="Масса" x="562.3" y="810"><tspan>г.</tspan></text>
            <text freecad:editable="Масштаб" x="579.7" y="810"><tspan>1:1</tspan></text>
            <text freecad:editable="Номер листа" x="554" y="820"><tspan>1</tspan></text>
            <text freecad:editable="Общее количество листов" x="580" y="820"><tspan>1</tspan></text>
        </g>
        <g
            id="titleblock-text-editable-middle-12px"
            style="font-style:italic;font-size:12px;text-anchor:middle;fill:#000000;font-family:'GOSTRUS'">
            <text freecad:editable="Обозначение" x="528" y="792"><tspan>Обозначение</tspan></text>
            <text freecad:editable="Наименование Середина" x="503.5" y="811.5"><tspan>Наименование</tspan></text>
            <text freecad:editable="Организация" x="563.5" y="832.5"><tspan></tspan></text>
		</g>
        <g
            id="titleblock-text-editable-middle-9px"
            style="font-style:italic;font-size:9px;text-anchor:middle;fill:#000000;font-family:'GOSTRUS'">
            <text freecad:editable="Наименование строка 1" x="503.5" y="805"><tspan></tspan></text>
            <text freecad:editable="Наименование строка 2" x="503.5" y="813"><tspan></tspan></text>
        </g>
        <g
            id="titleblock-text-editable-middle-7px"
            style="font-style:italic;font-size:7px;text-anchor:middle;fill:#000000;font-family:'GOSTRUS'">
            <text freecad:editable="Сборочный чертеж" x="503.5" y="819.5"><tspan>Сборочный чертеж</tspan></text>
            <text freecad:editable="Оборудование / Материал" x="503.5" y="830"><tspan></tspan></text>
            <text freecad:editable="Оборудование / Материал строка 1" x="503.5" y="827"><tspan></tspan></text>
            <text freecad:editable="Оборудование / Материал строка 2" x="503.5" y="834"><tspan></tspan></text>
		</g>
        <g
            id="thick-leftblock-structure"
            style="fill:none;stroke:#000000;stroke-width:0.6;stroke-linecap:miter;stroke-miterlimit:4">
            <rect width="12" height="120" x="8" y="549" />
            <path d="m 13,549 v 120" />
            <path d="m 8,609 h 12" />
            <rect width="12" height="145" x="8" y="691" />
            <path d="m 13,691 v 145" />
            <path d="m 8,726 h 12" />
            <path d="m 8,751 h 12" />
            <path d="m 8,776 h 12" />
            <path d="m 8,811 h 12" />
            
        </g>
        <g
            id="leftblock-text-non-editable"
            style="font-style:italic;font-size:4px;text-anchor:middle;fill:#000000;font-family:'GOSTRUS'"
            transform="matrix(0,-1,1,0,0,0)" >
            <text x="-579" y="11.5">Перв. примен.</text>
            <text x="-640" y="11.5">Справ. №</text>
            <text x="-709" y="11.5">Подп. и дата</text>
            <text x="-739" y="11.5">Инв. № дубл.</text>
            <text x="-764" y="11.5">Взам. инв. №</text>
            <text x="-794" y="11.5">Подп. и дата</text>
            <text x="-824" y="11.5">Инв. № подл</text>
        </g>
        <g
		    id="leftblock-text-editable"
			style="font-style:italic;font-size:4px;text-anchor:middle;fill:#000000;font-family:'GOSTRUS'">
		    <text freecad:editable="Первичная применяемость" x="15" y="579" transform="rotate(-90,16.5,578)"><tspan></tspan></text>
            <text freecad:editable="Справ. №" x="15" y="640" transform="rotate(-90,16.5,639)"><tspan></tspan></text>
            <text freecad:editable="Подп. и дата дубликата" x="15" y="709" transform="rotate(-90,16.5,708)"><tspan></tspan></text>
            <text freecad:editable="Инв. № дубл." x="15" y="739" transform="rotate(-90,16.5,738)"><tspan></tspan></text>
            <text freecad:editable="Взам. инв. №" x="15" y="764" transform="rotate(-90,16.5,763)"><tspan></tspan></text>
            <text freecad:editable="Подп. и дата подлинника" x="15" y="794" transform="rotate(-90,16.5,793)"><tspan></tspan></text>
            <text freecad:editable="Инв. № подл" x="15" y="824" transform="rotate(-90,16.5,823)"><tspan></tspan></text>
	    </g>
    </g>
<!-- DrawingContent -->
</svg>
    